# Blender 5.1.2
# www.blender.org
mtllib carthabot_coin.mtl
o Coin
v 0.000000 -0.040000 0.319873
v 0.000000 -0.020000 0.340000
v 0.000000 -0.034142 0.334105
v 0.000000 0.040000 0.319873
v 0.000000 0.020000 0.340000
v 0.000000 0.034142 0.334105
v -0.071179 -0.040000 0.311854
v -0.075657 -0.020000 0.331475
v -0.074345 -0.034142 0.325728
v -0.071179 0.040000 0.311854
v -0.075657 0.020000 0.331475
v -0.074345 0.034142 0.325728
v -0.138788 -0.040000 0.288196
v -0.147520 -0.020000 0.306329
v -0.144963 -0.034142 0.301018
v -0.138788 0.040000 0.288196
v -0.147520 0.020000 0.306329
v -0.144963 0.034142 0.301018
v -0.199438 -0.040000 0.250087
v -0.211987 -0.020000 0.265823
v -0.208311 -0.034142 0.261214
v -0.199438 0.040000 0.250087
v -0.211987 0.020000 0.265823
v -0.208311 0.034142 0.261214
v -0.250087 -0.040000 0.199438
v -0.265823 -0.020000 0.211987
v -0.261214 -0.034142 0.208311
v -0.250087 0.040000 0.199438
v -0.265823 0.020000 0.211987
v -0.261214 0.034142 0.208311
v -0.288196 -0.040000 0.138788
v -0.306329 -0.020000 0.147520
v -0.301018 -0.034142 0.144963
v -0.288196 0.040000 0.138788
v -0.306329 0.020000 0.147520
v -0.301018 0.034142 0.144963
v -0.311854 -0.040000 0.071179
v -0.331475 -0.020000 0.075657
v -0.325728 -0.034142 0.074345
v -0.311854 0.040000 0.071179
v -0.331475 0.020000 0.075657
v -0.325728 0.034142 0.074345
v -0.319873 -0.040000 0.000000
v -0.340000 -0.020000 0.000000
v -0.334105 -0.034142 0.000000
v -0.319873 0.040000 -0.000000
v -0.340000 0.020000 -0.000000
v -0.334105 0.034142 -0.000000
v -0.311854 -0.040000 -0.071179
v -0.331475 -0.020000 -0.075657
v -0.325728 -0.034142 -0.074345
v -0.311854 0.040000 -0.071179
v -0.331475 0.020000 -0.075657
v -0.325728 0.034142 -0.074345
v -0.288196 -0.040000 -0.138788
v -0.306329 -0.020000 -0.147520
v -0.301018 -0.034142 -0.144963
v -0.288196 0.040000 -0.138788
v -0.306329 0.020000 -0.147520
v -0.301018 0.034142 -0.144963
v -0.250087 -0.040000 -0.199438
v -0.265823 -0.020000 -0.211987
v -0.261214 -0.034142 -0.208311
v -0.250087 0.040000 -0.199438
v -0.265823 0.020000 -0.211987
v -0.261214 0.034142 -0.208311
v -0.199438 -0.040000 -0.250087
v -0.211987 -0.020000 -0.265823
v -0.208311 -0.034142 -0.261214
v -0.199438 0.040000 -0.250087
v -0.211987 0.020000 -0.265823
v -0.208311 0.034142 -0.261214
v -0.138788 -0.040000 -0.288196
v -0.147520 -0.020000 -0.306329
v -0.144963 -0.034142 -0.301018
v -0.138788 0.040000 -0.288196
v -0.147520 0.020000 -0.306329
v -0.144963 0.034142 -0.301018
v -0.071179 -0.040000 -0.311854
v -0.075657 -0.020000 -0.331475
v -0.074345 -0.034142 -0.325728
v -0.071179 0.040000 -0.311854
v -0.075657 0.020000 -0.331475
v -0.074345 0.034142 -0.325728
v 0.000000 -0.040000 -0.319873
v 0.000000 -0.020000 -0.340000
v 0.000000 -0.034142 -0.334105
v 0.000000 0.040000 -0.319873
v 0.000000 0.020000 -0.340000
v 0.000000 0.034142 -0.334105
v 0.071179 -0.040000 -0.311854
v 0.075657 -0.020000 -0.331475
v 0.074345 -0.034142 -0.325728
v 0.071179 0.040000 -0.311854
v 0.075657 0.020000 -0.331475
v 0.074345 0.034142 -0.325728
v 0.138788 -0.040000 -0.288196
v 0.147520 -0.020000 -0.306329
v 0.144963 -0.034142 -0.301018
v 0.138788 0.040000 -0.288196
v 0.147520 0.020000 -0.306329
v 0.144963 0.034142 -0.301018
v 0.199438 -0.040000 -0.250087
v 0.211987 -0.020000 -0.265823
v 0.208311 -0.034142 -0.261214
v 0.199438 0.040000 -0.250087
v 0.211987 0.020000 -0.265823
v 0.208311 0.034142 -0.261214
v 0.250087 -0.040000 -0.199438
v 0.265823 -0.020000 -0.211987
v 0.261214 -0.034142 -0.208311
v 0.250087 0.040000 -0.199438
v 0.265823 0.020000 -0.211987
v 0.261214 0.034142 -0.208311
v 0.288196 -0.040000 -0.138788
v 0.306329 -0.020000 -0.147520
v 0.301018 -0.034142 -0.144963
v 0.288196 0.040000 -0.138788
v 0.306329 0.020000 -0.147520
v 0.301018 0.034142 -0.144963
v 0.311854 -0.040000 -0.071179
v 0.331475 -0.020000 -0.075657
v 0.325728 -0.034142 -0.074345
v 0.311854 0.040000 -0.071179
v 0.331475 0.020000 -0.075657
v 0.325728 0.034142 -0.074345
v 0.319873 -0.040000 0.000000
v 0.340000 -0.020000 0.000000
v 0.334105 -0.034142 0.000000
v 0.319873 0.040000 -0.000000
v 0.340000 0.020000 -0.000000
v 0.334105 0.034142 -0.000000
v 0.311854 -0.040000 0.071179
v 0.331475 -0.020000 0.075657
v 0.325728 -0.034142 0.074345
v 0.311854 0.040000 0.071179
v 0.331475 0.020000 0.075657
v 0.325728 0.034142 0.074345
v 0.288196 -0.040000 0.138788
v 0.306329 -0.020000 0.147520
v 0.301018 -0.034142 0.144963
v 0.288196 0.040000 0.138788
v 0.306329 0.020000 0.147520
v 0.301018 0.034142 0.144963
v 0.250087 -0.040000 0.199438
v 0.265823 -0.020000 0.211987
v 0.261214 -0.034142 0.208311
v 0.250087 0.040000 0.199438
v 0.265823 0.020000 0.211987
v 0.261214 0.034142 0.208311
v 0.199438 -0.040000 0.250087
v 0.211987 -0.020000 0.265823
v 0.208311 -0.034142 0.261214
v 0.199438 0.040000 0.250087
v 0.211987 0.020000 0.265823
v 0.208311 0.034142 0.261214
v 0.138788 -0.040000 0.288196
v 0.147520 -0.020000 0.306329
v 0.144963 -0.034142 0.301018
v 0.138788 0.040000 0.288196
v 0.147520 0.020000 0.306329
v 0.144963 0.034142 0.301018
v 0.071179 -0.040000 0.311854
v 0.075657 -0.020000 0.331475
v 0.074345 -0.034142 0.325728
v 0.071179 0.040000 0.311854
v 0.075657 0.020000 0.331475
v 0.074345 0.034142 0.325728
vn -0.0000 -0.9783 0.2073
vn -0.0000 -0.1936 0.9811
vn -0.0000 -0.6953 0.7187
vn -0.0000 0.9783 0.2073
vn -0.0000 0.1936 0.9811
vn -0.0000 0.6953 0.7187
vn -0.0461 -0.9783 0.2021
vn -0.2183 -0.1936 0.9565
vn -0.1599 -0.6953 0.7007
vn -0.0461 0.9783 0.2021
vn -0.2183 0.1936 0.9565
vn -0.1599 0.6953 0.7007
vn -0.0899 -0.9783 0.1867
vn -0.4257 -0.1935 0.8839
vn -0.3118 -0.6953 0.6476
vn -0.0899 0.9783 0.1867
vn -0.4257 0.1935 0.8839
vn -0.3118 0.6953 0.6476
vn -0.1292 -0.9783 0.1620
vn -0.6117 -0.1936 0.7670
vn -0.4481 -0.6953 0.5619
vn -0.1292 0.9783 0.1620
vn -0.6117 0.1936 0.7670
vn -0.4481 0.6953 0.5619
vn -0.1620 -0.9783 0.1292
vn -0.7670 -0.1936 0.6117
vn -0.5619 -0.6953 0.4481
vn -0.1620 0.9783 0.1292
vn -0.7670 0.1936 0.6117
vn -0.5619 0.6953 0.4481
vn -0.1867 -0.9783 0.0899
vn -0.8839 -0.1936 0.4257
vn -0.6476 -0.6953 0.3118
vn -0.1867 0.9783 0.0899
vn -0.8839 0.1936 0.4257
vn -0.6476 0.6953 0.3118
vn -0.2021 -0.9783 0.0461
vn -0.9565 -0.1936 0.2183
vn -0.7007 -0.6953 0.1599
vn -0.2021 0.9783 0.0461
vn -0.9565 0.1936 0.2183
vn -0.7007 0.6953 0.1599
vn -0.2073 -0.9783 -0.0000
vn -0.9811 -0.1936 -0.0000
vn -0.7187 -0.6953 -0.0000
vn -0.2073 0.9783 -0.0000
vn -0.9811 0.1936 -0.0000
vn -0.7187 0.6953 -0.0000
vn -0.2021 -0.9783 -0.0461
vn -0.9565 -0.1936 -0.2183
vn -0.7007 -0.6953 -0.1599
vn -0.2021 0.9783 -0.0461
vn -0.9565 0.1936 -0.2183
vn -0.7007 0.6953 -0.1599
vn -0.1867 -0.9783 -0.0899
vn -0.8839 -0.1936 -0.4257
vn -0.6476 -0.6953 -0.3118
vn -0.1867 0.9783 -0.0899
vn -0.8839 0.1935 -0.4257
vn -0.6476 0.6953 -0.3118
vn -0.1620 -0.9783 -0.1292
vn -0.7670 -0.1936 -0.6117
vn -0.5619 -0.6953 -0.4481
vn -0.1620 0.9783 -0.1292
vn -0.7670 0.1936 -0.6117
vn -0.5619 0.6953 -0.4481
vn -0.1292 -0.9783 -0.1620
vn -0.6117 -0.1936 -0.7670
vn -0.4481 -0.6953 -0.5619
vn -0.1292 0.9783 -0.1620
vn -0.6117 0.1936 -0.7670
vn -0.4481 0.6953 -0.5619
vn -0.0899 -0.9783 -0.1867
vn -0.4257 -0.1935 -0.8839
vn -0.3118 -0.6953 -0.6476
vn -0.0899 0.9783 -0.1867
vn -0.4257 0.1935 -0.8839
vn -0.3118 0.6953 -0.6476
vn -0.0461 -0.9783 -0.2021
vn -0.2183 -0.1936 -0.9565
vn -0.1599 -0.6953 -0.7007
vn -0.0461 0.9783 -0.2021
vn -0.2183 0.1936 -0.9565
vn -0.1599 0.6953 -0.7007
vn -0.0000 -0.9783 -0.2073
vn -0.0000 -0.1936 -0.9811
vn -0.0000 -0.6953 -0.7187
vn -0.0000 0.9783 -0.2073
vn -0.0000 0.1936 -0.9811
vn -0.0000 0.6953 -0.7187
vn 0.0461 -0.9783 -0.2021
vn 0.2183 -0.1936 -0.9565
vn 0.1599 -0.6953 -0.7007
vn 0.0461 0.9783 -0.2021
vn 0.2183 0.1936 -0.9565
vn 0.1599 0.6953 -0.7007
vn 0.0899 -0.9783 -0.1867
vn 0.4257 -0.1935 -0.8839
vn 0.3118 -0.6953 -0.6476
vn 0.0899 0.9783 -0.1867
vn 0.4257 0.1935 -0.8839
vn 0.3118 0.6953 -0.6476
vn 0.1292 -0.9783 -0.1620
vn 0.6117 -0.1936 -0.7670
vn 0.4481 -0.6953 -0.5619
vn 0.1292 0.9783 -0.1620
vn 0.6117 0.1936 -0.7670
vn 0.4481 0.6953 -0.5619
vn 0.1620 -0.9783 -0.1292
vn 0.7670 -0.1936 -0.6117
vn 0.5619 -0.6953 -0.4481
vn 0.1620 0.9783 -0.1292
vn 0.7670 0.1936 -0.6117
vn 0.5619 0.6953 -0.4481
vn 0.1867 -0.9783 -0.0899
vn 0.8839 -0.1936 -0.4257
vn 0.6476 -0.6953 -0.3118
vn 0.1867 0.9783 -0.0899
vn 0.8839 0.1936 -0.4257
vn 0.6476 0.6953 -0.3118
vn 0.2021 -0.9783 -0.0461
vn 0.9565 -0.1936 -0.2183
vn 0.7007 -0.6953 -0.1599
vn 0.2021 0.9783 -0.0461
vn 0.9565 0.1936 -0.2183
vn 0.7007 0.6953 -0.1599
vn 0.2073 -0.9783 -0.0000
vn 0.9811 -0.1936 -0.0000
vn 0.7187 -0.6953 -0.0000
vn 0.2073 0.9783 -0.0000
vn 0.9811 0.1936 -0.0000
vn 0.7187 0.6953 -0.0000
vn 0.2021 -0.9783 0.0461
vn 0.9565 -0.1936 0.2183
vn 0.7007 -0.6953 0.1599
vn 0.2021 0.9783 0.0461
vn 0.9565 0.1936 0.2183
vn 0.7007 0.6953 0.1599
vn 0.1867 -0.9783 0.0899
vn 0.8839 -0.1936 0.4257
vn 0.6476 -0.6953 0.3118
vn 0.1867 0.9783 0.0899
vn 0.8839 0.1936 0.4257
vn 0.6476 0.6953 0.3118
vn 0.1620 -0.9783 0.1292
vn 0.7670 -0.1936 0.6117
vn 0.5619 -0.6953 0.4481
vn 0.1620 0.9783 0.1292
vn 0.7670 0.1936 0.6117
vn 0.5619 0.6953 0.4481
vn 0.1292 -0.9783 0.1620
vn 0.6117 -0.1936 0.7670
vn 0.4481 -0.6953 0.5619
vn 0.1292 0.9783 0.1620
vn 0.6117 0.1936 0.7670
vn 0.4481 0.6953 0.5619
vn 0.0899 -0.9783 0.1867
vn 0.4257 -0.1935 0.8839
vn 0.3118 -0.6953 0.6476
vn 0.0899 0.9783 0.1867
vn 0.4257 0.1935 0.8839
vn 0.3118 0.6953 0.6476
vn 0.0461 -0.9783 0.2021
vn 0.2183 -0.1936 0.9565
vn 0.1599 -0.6953 0.7007
vn 0.0461 0.9783 0.2021
vn 0.2183 0.1936 0.9565
vn 0.1599 0.6953 0.7007
vt 1.000000 0.625000
vt 0.964286 0.625000
vt 0.964286 0.500000
vt 0.999690 0.500000
vt 0.750000 0.489948
vt 0.803393 0.483932
vt 0.800244 0.470132
vt 0.750000 0.475793
vt 0.964286 0.875000
vt 1.000000 0.875000
vt 0.999690 1.000000
vt 0.964286 1.000000
vt 0.303393 0.483932
vt 0.250000 0.489948
vt 0.250000 0.475793
vt 0.300244 0.470132
vt 0.928571 0.625000
vt 0.928571 0.500000
vt 0.854109 0.466186
vt 0.847968 0.453432
vt 0.928571 0.875000
vt 0.928571 1.000000
vt 0.354109 0.466186
vt 0.347968 0.453433
vt 0.892857 0.625000
vt 0.892857 0.500000
vt 0.899605 0.437599
vt 0.890780 0.426532
vt 0.892857 0.875000
vt 0.892857 1.000000
vt 0.399605 0.437599
vt 0.390780 0.426532
vt 0.857143 0.625000
vt 0.857143 0.500000
vt 0.937599 0.399605
vt 0.926532 0.390780
vt 0.857143 0.875000
vt 0.857143 1.000000
vt 0.437599 0.399605
vt 0.426532 0.390780
vt 0.821429 0.625000
vt 0.821429 0.500000
vt 0.966186 0.354109
vt 0.953433 0.347968
vt 0.821429 0.875000
vt 0.821429 1.000000
vt 0.466186 0.354109
vt 0.453433 0.347968
vt 0.785714 0.625000
vt 0.785714 0.500000
vt 0.983932 0.303393
vt 0.970132 0.300244
vt 0.785714 0.875000
vt 0.785714 1.000000
vt 0.483932 0.303393
vt 0.470132 0.300244
vt 0.750000 0.625000
vt 0.750000 0.500000
vt 0.989948 0.250000
vt 0.975793 0.250000
vt 0.750000 0.875000
vt 0.750000 1.000000
vt 0.489948 0.250000
vt 0.475793 0.250000
vt 0.714286 0.625000
vt 0.714286 0.500000
vt 0.983932 0.196607
vt 0.970132 0.199756
vt 0.714286 0.875000
vt 0.714286 1.000000
vt 0.483932 0.196607
vt 0.470132 0.199756
vt 0.678572 0.625000
vt 0.678572 0.500000
vt 0.966186 0.145891
vt 0.953433 0.152032
vt 0.678572 0.875000
vt 0.678572 1.000000
vt 0.466186 0.145891
vt 0.453432 0.152032
vt 0.642857 0.625000
vt 0.642857 0.500000
vt 0.937599 0.100395
vt 0.926532 0.109220
vt 0.642857 0.875000
vt 0.642857 1.000000
vt 0.437599 0.100395
vt 0.426532 0.109220
vt 0.607143 0.625000
vt 0.607143 0.500000
vt 0.899605 0.062401
vt 0.890780 0.073468
vt 0.607143 0.875000
vt 0.607143 1.000000
vt 0.399605 0.062401
vt 0.390780 0.073468
vt 0.571429 0.625000
vt 0.571429 0.500000
vt 0.854109 0.033814
vt 0.847968 0.046568
vt 0.571429 0.875000
vt 0.571429 1.000000
vt 0.354109 0.033814
vt 0.347968 0.046568
vt 0.535715 0.625000
vt 0.535715 0.500000
vt 0.803393 0.016068
vt 0.800244 0.029868
vt 0.535715 0.875000
vt 0.535715 1.000000
vt 0.303393 0.016068
vt 0.300244 0.029868
vt 0.500000 0.625000
vt 0.500000 0.500000
vt 0.750000 0.010052
vt 0.750000 0.024207
vt 0.500000 0.875000
vt 0.500000 1.000000
vt 0.250000 0.010052
vt 0.250000 0.024207
vt 0.464286 0.625000
vt 0.464286 0.500000
vt 0.696607 0.016068
vt 0.699756 0.029868
vt 0.464286 0.875000
vt 0.464286 1.000000
vt 0.196607 0.016068
vt 0.199756 0.029868
vt 0.428572 0.625000
vt 0.428572 0.500000
vt 0.645891 0.033814
vt 0.652032 0.046568
vt 0.428572 0.875000
vt 0.428572 1.000000
vt 0.145891 0.033814
vt 0.152032 0.046568
vt 0.392857 0.625000
vt 0.392857 0.500000
vt 0.600395 0.062401
vt 0.609220 0.073468
vt 0.392857 0.875000
vt 0.392857 1.000000
vt 0.100395 0.062401
vt 0.109220 0.073468
vt 0.357143 0.625000
vt 0.357143 0.500000
vt 0.562401 0.100395
vt 0.573468 0.109220
vt 0.357143 0.875000
vt 0.357143 1.000000
vt 0.062401 0.100395
vt 0.073468 0.109220
vt 0.321429 0.625000
vt 0.321429 0.500000
vt 0.533814 0.145891
vt 0.546567 0.152032
vt 0.321429 0.875000
vt 0.321429 1.000000
vt 0.033814 0.145891
vt 0.046568 0.152032
vt 0.285714 0.625000
vt 0.285714 0.500000
vt 0.516068 0.196607
vt 0.529868 0.199756
vt 0.285714 0.875000
vt 0.285714 1.000000
vt 0.016068 0.196607
vt 0.029868 0.199756
vt 0.250000 0.625000
vt 0.250000 0.500000
vt 0.510052 0.250000
vt 0.524207 0.250000
vt 0.250000 0.875000
vt 0.250000 1.000000
vt 0.010052 0.250000
vt 0.024207 0.250000
vt 0.214286 0.625000
vt 0.214286 0.500000
vt 0.516068 0.303393
vt 0.529868 0.300244
vt 0.214286 0.875000
vt 0.214286 1.000000
vt 0.016068 0.303393
vt 0.029868 0.300244
vt 0.178572 0.625000
vt 0.178572 0.500000
vt 0.533814 0.354109
vt 0.546568 0.347968
vt 0.178572 0.875000
vt 0.178572 1.000000
vt 0.033814 0.354109
vt 0.046568 0.347968
vt 0.142857 0.625000
vt 0.142857 0.500000
vt 0.562401 0.399605
vt 0.573468 0.390780
vt 0.142857 0.875000
vt 0.142857 1.000000
vt 0.062401 0.399605
vt 0.073468 0.390780
vt 0.107143 0.625000
vt 0.107143 0.500000
vt 0.600395 0.437599
vt 0.609220 0.426532
vt 0.107143 0.875000
vt 0.107143 1.000000
vt 0.100395 0.437599
vt 0.109220 0.426532
vt 0.071429 0.625000
vt 0.071429 0.500000
vt 0.645891 0.466186
vt 0.652032 0.453433
vt 0.071429 0.875000
vt 0.071429 1.000000
vt 0.145891 0.466186
vt 0.152032 0.453432
vt 0.035714 0.625000
vt 0.035714 0.500000
vt 0.696607 0.483932
vt 0.699756 0.470132
vt 0.035714 0.875000
vt 0.035714 1.000000
vt 0.196607 0.483932
vt 0.199756 0.470132
vt 0.000000 0.625000
vt 0.000310 0.500000
vt 0.000000 0.875000
vt 0.000310 1.000000
s 1
usemtl SimCoin
f 2/1/2 8/2/8 9/3/9 3/4/3
f 3/5/3 9/6/9 7/7/7 1/8/1
f 11/9/11 5/10/5 6/11/6 12/12/12
f 12/13/12 6/14/6 4/15/4 10/16/10
f 8/2/8 14/17/14 15/18/15 9/3/9
f 9/6/9 15/19/15 13/20/13 7/7/7
f 17/21/17 11/9/11 12/12/12 18/22/18
f 18/23/18 12/13/12 10/16/10 16/24/16
f 14/17/14 20/25/20 21/26/21 15/18/15
f 15/19/15 21/27/21 19/28/19 13/20/13
f 23/29/23 17/21/17 18/22/18 24/30/24
f 24/31/24 18/23/18 16/24/16 22/32/22
f 20/25/20 26/33/26 27/34/27 21/26/21
f 21/27/21 27/35/27 25/36/25 19/28/19
f 29/37/29 23/29/23 24/30/24 30/38/30
f 30/39/30 24/31/24 22/32/22 28/40/28
f 26/33/26 32/41/32 33/42/33 27/34/27
f 27/35/27 33/43/33 31/44/31 25/36/25
f 35/45/35 29/37/29 30/38/30 36/46/36
f 36/47/36 30/39/30 28/40/28 34/48/34
f 32/41/32 38/49/38 39/50/39 33/42/33
f 33/43/33 39/51/39 37/52/37 31/44/31
f 41/53/41 35/45/35 36/46/36 42/54/42
f 42/55/42 36/47/36 34/48/34 40/56/40
f 38/49/38 44/57/44 45/58/45 39/50/39
f 39/51/39 45/59/45 43/60/43 37/52/37
f 47/61/47 41/53/41 42/54/42 48/62/48
f 48/63/48 42/55/42 40/56/40 46/64/46
f 44/57/44 50/65/50 51/66/51 45/58/45
f 45/59/45 51/67/51 49/68/49 43/60/43
f 53/69/53 47/61/47 48/62/48 54/70/54
f 54/71/54 48/63/48 46/64/46 52/72/52
f 50/65/50 56/73/56 57/74/57 51/66/51
f 51/67/51 57/75/57 55/76/55 49/68/49
f 59/77/59 53/69/53 54/70/54 60/78/60
f 60/79/60 54/71/54 52/72/52 58/80/58
f 56/73/56 62/81/62 63/82/63 57/74/57
f 57/75/57 63/83/63 61/84/61 55/76/55
f 65/85/65 59/77/59 60/78/60 66/86/66
f 66/87/66 60/79/60 58/80/58 64/88/64
f 62/81/62 68/89/68 69/90/69 63/82/63
f 63/83/63 69/91/69 67/92/67 61/84/61
f 71/93/71 65/85/65 66/86/66 72/94/72
f 72/95/72 66/87/66 64/88/64 70/96/70
f 68/89/68 74/97/74 75/98/75 69/90/69
f 69/91/69 75/99/75 73/100/73 67/92/67
f 77/101/77 71/93/71 72/94/72 78/102/78
f 78/103/78 72/95/72 70/96/70 76/104/76
f 74/97/74 80/105/80 81/106/81 75/98/75
f 75/99/75 81/107/81 79/108/79 73/100/73
f 83/109/83 77/101/77 78/102/78 84/110/84
f 84/111/84 78/103/78 76/104/76 82/112/82
f 80/105/80 86/113/86 87/114/87 81/106/81
f 81/107/81 87/115/87 85/116/85 79/108/79
f 89/117/89 83/109/83 84/110/84 90/118/90
f 90/119/90 84/111/84 82/112/82 88/120/88
f 86/113/86 92/121/92 93/122/93 87/114/87
f 87/115/87 93/123/93 91/124/91 85/116/85
f 95/125/95 89/117/89 90/118/90 96/126/96
f 96/127/96 90/119/90 88/120/88 94/128/94
f 92/121/92 98/129/98 99/130/99 93/122/93
f 93/123/93 99/131/99 97/132/97 91/124/91
f 101/133/101 95/125/95 96/126/96 102/134/102
f 102/135/102 96/127/96 94/128/94 100/136/100
f 98/129/98 104/137/104 105/138/105 99/130/99
f 99/131/99 105/139/105 103/140/103 97/132/97
f 107/141/107 101/133/101 102/134/102 108/142/108
f 108/143/108 102/135/102 100/136/100 106/144/106
f 104/137/104 110/145/110 111/146/111 105/138/105
f 105/139/105 111/147/111 109/148/109 103/140/103
f 113/149/113 107/141/107 108/142/108 114/150/114
f 114/151/114 108/143/108 106/144/106 112/152/112
f 110/145/110 116/153/116 117/154/117 111/146/111
f 111/147/111 117/155/117 115/156/115 109/148/109
f 119/157/119 113/149/113 114/150/114 120/158/120
f 120/159/120 114/151/114 112/152/112 118/160/118
f 116/153/116 122/161/122 123/162/123 117/154/117
f 117/155/117 123/163/123 121/164/121 115/156/115
f 125/165/125 119/157/119 120/158/120 126/166/126
f 126/167/126 120/159/120 118/160/118 124/168/124
f 122/161/122 128/169/128 129/170/129 123/162/123
f 123/163/123 129/171/129 127/172/127 121/164/121
f 131/173/131 125/165/125 126/166/126 132/174/132
f 132/175/132 126/167/126 124/168/124 130/176/130
f 128/169/128 134/177/134 135/178/135 129/170/129
f 129/171/129 135/179/135 133/180/133 127/172/127
f 137/181/137 131/173/131 132/174/132 138/182/138
f 138/183/138 132/175/132 130/176/130 136/184/136
f 134/177/134 140/185/140 141/186/141 135/178/135
f 135/179/135 141/187/141 139/188/139 133/180/133
f 143/189/143 137/181/137 138/182/138 144/190/144
f 144/191/144 138/183/138 136/184/136 142/192/142
f 140/185/140 146/193/146 147/194/147 141/186/141
f 141/187/141 147/195/147 145/196/145 139/188/139
f 149/197/149 143/189/143 144/190/144 150/198/150
f 150/199/150 144/191/144 142/192/142 148/200/148
f 146/193/146 152/201/152 153/202/153 147/194/147
f 147/195/147 153/203/153 151/204/151 145/196/145
f 155/205/155 149/197/149 150/198/150 156/206/156
f 156/207/156 150/199/150 148/200/148 154/208/154
f 152/201/152 158/209/158 159/210/159 153/202/153
f 153/203/153 159/211/159 157/212/157 151/204/151
f 161/213/161 155/205/155 156/206/156 162/214/162
f 162/215/162 156/207/156 154/208/154 160/216/160
f 158/209/158 164/217/164 165/218/165 159/210/159
f 159/211/159 165/219/165 163/220/163 157/212/157
f 167/221/167 161/213/161 162/214/162 168/222/168
f 168/223/168 162/215/162 160/216/160 166/224/166
f 164/217/164 2/225/2 3/226/3 165/218/165
f 165/219/165 3/5/3 1/8/1 163/220/163
f 5/227/5 167/221/167 168/222/168 6/228/6
f 6/14/6 168/223/168 166/224/166 4/15/4
f 1/8/1 7/7/7 13/20/13 19/28/19 25/36/25 31/44/31 37/52/37 43/60/43 49/68/49 55/76/55 61/84/61 67/92/67 73/100/73 79/108/79 85/116/85 91/124/91 97/132/97 103/140/103 109/148/109 115/156/115 121/164/121 127/172/127 133/180/133 139/188/139 145/196/145 151/204/151 157/212/157 163/220/163
f 2/1/2 5/10/5 11/9/11 8/2/8
f 164/217/164 167/221/167 5/227/5 2/225/2
f 10/16/10 4/15/4 166/224/166 160/216/160 154/208/154 148/200/148 142/192/142 136/184/136 130/176/130 124/168/124 118/160/118 112/152/112 106/144/106 100/136/100 94/128/94 88/120/88 82/112/82 76/104/76 70/96/70 64/88/64 58/80/58 52/72/52 46/64/46 40/56/40 34/48/34 28/40/28 22/32/22 16/24/16
f 8/2/8 11/9/11 17/21/17 14/17/14
f 14/17/14 17/21/17 23/29/23 20/25/20
f 20/25/20 23/29/23 29/37/29 26/33/26
f 26/33/26 29/37/29 35/45/35 32/41/32
f 32/41/32 35/45/35 41/53/41 38/49/38
f 38/49/38 41/53/41 47/61/47 44/57/44
f 44/57/44 47/61/47 53/69/53 50/65/50
f 50/65/50 53/69/53 59/77/59 56/73/56
f 56/73/56 59/77/59 65/85/65 62/81/62
f 62/81/62 65/85/65 71/93/71 68/89/68
f 68/89/68 71/93/71 77/101/77 74/97/74
f 74/97/74 77/101/77 83/109/83 80/105/80
f 80/105/80 83/109/83 89/117/89 86/113/86
f 86/113/86 89/117/89 95/125/95 92/121/92
f 92/121/92 95/125/95 101/133/101 98/129/98
f 98/129/98 101/133/101 107/141/107 104/137/104
f 104/137/104 107/141/107 113/149/113 110/145/110
f 110/145/110 113/149/113 119/157/119 116/153/116
f 116/153/116 119/157/119 125/165/125 122/161/122
f 122/161/122 125/165/125 131/173/131 128/169/128
f 128/169/128 131/173/131 137/181/137 134/177/134
f 134/177/134 137/181/137 143/189/143 140/185/140
f 140/185/140 143/189/143 149/197/149 146/193/146
f 146/193/146 149/197/149 155/205/155 152/201/152
f 152/201/152 155/205/155 161/213/161 158/209/158
f 158/209/158 161/213/161 167/221/167 164/217/164
