# Blender 5.1.2
# www.blender.org
mtllib carthabot_goalflag.mtl
o GoalPole
v 0.000000 -0.060000 0.000000
v 0.000000 -0.060000 2.200000
v -0.030000 -0.051962 0.000000
v -0.030000 -0.051962 2.200000
v -0.051962 -0.030000 0.000000
v -0.051962 -0.030000 2.200000
v -0.060000 0.000000 0.000000
v -0.060000 0.000000 2.200000
v -0.051962 0.030000 0.000000
v -0.051962 0.030000 2.200000
v -0.030000 0.051962 0.000000
v -0.030000 0.051962 2.200000
v 0.000000 0.060000 0.000000
v 0.000000 0.060000 2.200000
v 0.030000 0.051962 0.000000
v 0.030000 0.051962 2.200000
v 0.051962 0.030000 0.000000
v 0.051962 0.030000 2.200000
v 0.060000 0.000000 0.000000
v 0.060000 0.000000 2.200000
v 0.051962 -0.030000 0.000000
v 0.051962 -0.030000 2.200000
v 0.030000 -0.051962 0.000000
v 0.030000 -0.051962 2.200000
vn -0.0000 -0.7572 -0.6532
vn -0.0000 -0.7572 0.6532
vn -0.3786 -0.6557 -0.6532
vn -0.3786 -0.6557 0.6532
vn -0.6557 -0.3786 -0.6532
vn -0.6557 -0.3786 0.6532
vn -0.7572 -0.0000 -0.6532
vn -0.7572 -0.0000 0.6532
vn -0.6557 0.3786 -0.6532
vn -0.6557 0.3786 0.6532
vn -0.3786 0.6557 -0.6532
vn -0.3786 0.6557 0.6532
vn -0.0000 0.7572 -0.6532
vn -0.0000 0.7572 0.6532
vn 0.3786 0.6557 -0.6532
vn 0.3786 0.6557 0.6532
vn 0.6557 0.3786 -0.6532
vn 0.6557 0.3786 0.6532
vn 0.7572 -0.0000 -0.6532
vn 0.7572 -0.0000 0.6532
vn 0.6557 -0.3786 -0.6532
vn 0.6557 -0.3786 0.6532
vn 0.3786 -0.6557 -0.6532
vn 0.3786 -0.6557 0.6532
vt 1.000000 0.500000
vt 1.000000 1.000000
vt 0.916667 1.000000
vt 0.916667 0.500000
vt 0.833333 1.000000
vt 0.833333 0.500000
vt 0.750000 1.000000
vt 0.750000 0.500000
vt 0.666667 1.000000
vt 0.666667 0.500000
vt 0.583333 1.000000
vt 0.583333 0.500000
vt 0.500000 1.000000
vt 0.500000 0.500000
vt 0.416667 1.000000
vt 0.416667 0.500000
vt 0.333333 1.000000
vt 0.333333 0.500000
vt 0.250000 1.000000
vt 0.250000 0.500000
vt 0.166667 1.000000
vt 0.166667 0.500000
vt 0.370000 0.457846
vt 0.250000 0.490000
vt 0.130000 0.457846
vt 0.042154 0.370000
vt 0.010000 0.250000
vt 0.042154 0.130000
vt 0.130000 0.042154
vt 0.250000 0.010000
vt 0.370000 0.042154
vt 0.457846 0.130000
vt 0.490000 0.250000
vt 0.457846 0.370000
vt 0.083333 1.000000
vt 0.083333 0.500000
vt 0.000000 1.000000
vt 0.000000 0.500000
vt 0.750000 0.490000
vt 0.870000 0.457846
vt 0.957846 0.370000
vt 0.990000 0.250000
vt 0.957846 0.130000
vt 0.870000 0.042154
vt 0.750000 0.010000
vt 0.630000 0.042154
vt 0.542154 0.130000
vt 0.510000 0.250000
vt 0.542154 0.370000
vt 0.630000 0.457846
s 1
usemtl SimPole
f 1/1/1 2/2/2 4/3/4 3/4/3
f 3/4/3 4/3/4 6/5/6 5/6/5
f 5/6/5 6/5/6 8/7/8 7/8/7
f 7/8/7 8/7/8 10/9/10 9/10/9
f 9/10/9 10/9/10 12/11/12 11/12/11
f 11/12/11 12/11/12 14/13/14 13/14/13
f 13/14/13 14/13/14 16/15/16 15/16/15
f 15/16/15 16/15/16 18/17/18 17/18/17
f 17/18/17 18/17/18 20/19/20 19/20/19
f 19/20/19 20/19/20 22/21/22 21/22/21
f 4/23/4 2/24/2 24/25/24 22/26/22 20/27/20 18/28/18 16/29/16 14/30/14 12/31/12 10/32/10 8/33/8 6/34/6
f 21/22/21 22/21/22 24/35/24 23/36/23
f 23/36/23 24/35/24 2/37/2 1/38/1
f 1/39/1 3/40/3 5/41/5 7/42/7 9/43/9 11/44/11 13/45/13 15/46/15 17/47/17 19/48/19 21/49/21 23/50/23
o Chk_0_0
v -0.060000 0.025000 1.900000
v -0.060000 0.025000 2.200000
v -0.060000 -0.025000 1.900000
v -0.060000 -0.025000 2.200000
v -0.360000 0.025000 1.900000
v -0.360000 0.025000 2.200000
v -0.360000 -0.025000 1.900000
v -0.360000 -0.025000 2.200000
vn 1.0000 -0.0000 -0.0000
vn -0.0000 -1.0000 -0.0000
vn -1.0000 -0.0000 -0.0000
vn -0.0000 1.0000 -0.0000
vn -0.0000 -0.0000 -1.0000
vn -0.0000 -0.0000 1.0000
vt 0.375000 0.000000
vt 0.625000 0.000000
vt 0.625000 0.250000
vt 0.375000 0.250000
vt 0.625000 0.500000
vt 0.375000 0.500000
vt 0.625000 0.750000
vt 0.375000 0.750000
vt 0.625000 1.000000
vt 0.375000 1.000000
vt 0.125000 0.500000
vt 0.125000 0.750000
vt 0.875000 0.500000
vt 0.875000 0.750000
s 0
usemtl SimCheckW
f 25/51/25 26/52/25 28/53/25 27/54/25
f 27/54/26 28/53/26 32/55/26 31/56/26
f 31/56/27 32/55/27 30/57/27 29/58/27
f 29/58/28 30/57/28 26/59/28 25/60/28
f 27/61/29 31/56/29 29/58/29 25/62/29
f 32/55/30 28/63/30 26/64/30 30/57/30
o Chk_0_1
v -0.360000 0.025000 1.900000
v -0.360000 0.025000 2.200000
v -0.360000 -0.025000 1.900000
v -0.360000 -0.025000 2.200000
v -0.660000 0.025000 1.900000
v -0.660000 0.025000 2.200000
v -0.660000 -0.025000 1.900000
v -0.660000 -0.025000 2.200000
vn 1.0000 -0.0000 -0.0000
vn -0.0000 -1.0000 -0.0000
vn -1.0000 -0.0000 -0.0000
vn -0.0000 1.0000 -0.0000
vn -0.0000 -0.0000 -1.0000
vn -0.0000 -0.0000 1.0000
vt 0.375000 0.000000
vt 0.625000 0.000000
vt 0.625000 0.250000
vt 0.375000 0.250000
vt 0.625000 0.500000
vt 0.375000 0.500000
vt 0.625000 0.750000
vt 0.375000 0.750000
vt 0.625000 1.000000
vt 0.375000 1.000000
vt 0.125000 0.500000
vt 0.125000 0.750000
vt 0.875000 0.500000
vt 0.875000 0.750000
s 0
usemtl SimCheckB
f 33/65/31 34/66/31 36/67/31 35/68/31
f 35/68/32 36/67/32 40/69/32 39/70/32
f 39/70/33 40/69/33 38/71/33 37/72/33
f 37/72/34 38/71/34 34/73/34 33/74/34
f 35/75/35 39/70/35 37/72/35 33/76/35
f 40/69/36 36/77/36 34/78/36 38/71/36
o Chk_0_2
v -0.660000 0.025000 1.900000
v -0.660000 0.025000 2.200000
v -0.660000 -0.025000 1.900000
v -0.660000 -0.025000 2.200000
v -0.960000 0.025000 1.900000
v -0.960000 0.025000 2.200000
v -0.960000 -0.025000 1.900000
v -0.960000 -0.025000 2.200000
vn 1.0000 -0.0000 -0.0000
vn -0.0000 -1.0000 -0.0000
vn -1.0000 -0.0000 -0.0000
vn -0.0000 1.0000 -0.0000
vn -0.0000 -0.0000 -1.0000
vn -0.0000 -0.0000 1.0000
vt 0.375000 0.000000
vt 0.625000 0.000000
vt 0.625000 0.250000
vt 0.375000 0.250000
vt 0.625000 0.500000
vt 0.375000 0.500000
vt 0.625000 0.750000
vt 0.375000 0.750000
vt 0.625000 1.000000
vt 0.375000 1.000000
vt 0.125000 0.500000
vt 0.125000 0.750000
vt 0.875000 0.500000
vt 0.875000 0.750000
s 0
usemtl SimCheckW
f 41/79/37 42/80/37 44/81/37 43/82/37
f 43/82/38 44/81/38 48/83/38 47/84/38
f 47/84/39 48/83/39 46/85/39 45/86/39
f 45/86/40 46/85/40 42/87/40 41/88/40
f 43/89/41 47/84/41 45/86/41 41/90/41
f 48/83/42 44/91/42 42/92/42 46/85/42
o Chk_0_3
v -0.960000 0.025000 1.900000
v -0.960000 0.025000 2.200000
v -0.960000 -0.025000 1.900000
v -0.960000 -0.025000 2.200000
v -1.260000 0.025000 1.900000
v -1.260000 0.025000 2.200000
v -1.260000 -0.025000 1.900000
v -1.260000 -0.025000 2.200000
vn 1.0000 -0.0000 -0.0000
vn -0.0000 -1.0000 -0.0000
vn -1.0000 -0.0000 -0.0000
vn -0.0000 1.0000 -0.0000
vn -0.0000 -0.0000 -1.0000
vn -0.0000 -0.0000 1.0000
vt 0.375000 0.000000
vt 0.625000 0.000000
vt 0.625000 0.250000
vt 0.375000 0.250000
vt 0.625000 0.500000
vt 0.375000 0.500000
vt 0.625000 0.750000
vt 0.375000 0.750000
vt 0.625000 1.000000
vt 0.375000 1.000000
vt 0.125000 0.500000
vt 0.125000 0.750000
vt 0.875000 0.500000
vt 0.875000 0.750000
s 0
usemtl SimCheckB
f 49/93/43 50/94/43 52/95/43 51/96/43
f 51/96/44 52/95/44 56/97/44 55/98/44
f 55/98/45 56/97/45 54/99/45 53/100/45
f 53/100/46 54/99/46 50/101/46 49/102/46
f 51/103/47 55/98/47 53/100/47 49/104/47
f 56/97/48 52/105/48 50/106/48 54/99/48
o Chk_1_0
v -0.060000 0.025000 1.600000
v -0.060000 0.025000 1.900000
v -0.060000 -0.025000 1.600000
v -0.060000 -0.025000 1.900000
v -0.360000 0.025000 1.600000
v -0.360000 0.025000 1.900000
v -0.360000 -0.025000 1.600000
v -0.360000 -0.025000 1.900000
vn 1.0000 -0.0000 -0.0000
vn -0.0000 -1.0000 -0.0000
vn -1.0000 -0.0000 -0.0000
vn -0.0000 1.0000 -0.0000
vn -0.0000 -0.0000 -1.0000
vn -0.0000 -0.0000 1.0000
vt 0.375000 0.000000
vt 0.625000 0.000000
vt 0.625000 0.250000
vt 0.375000 0.250000
vt 0.625000 0.500000
vt 0.375000 0.500000
vt 0.625000 0.750000
vt 0.375000 0.750000
vt 0.625000 1.000000
vt 0.375000 1.000000
vt 0.125000 0.500000
vt 0.125000 0.750000
vt 0.875000 0.500000
vt 0.875000 0.750000
s 0
usemtl SimCheckB
f 57/107/49 58/108/49 60/109/49 59/110/49
f 59/110/50 60/109/50 64/111/50 63/112/50
f 63/112/51 64/111/51 62/113/51 61/114/51
f 61/114/52 62/113/52 58/115/52 57/116/52
f 59/117/53 63/112/53 61/114/53 57/118/53
f 64/111/54 60/119/54 58/120/54 62/113/54
o Chk_1_1
v -0.360000 0.025000 1.600000
v -0.360000 0.025000 1.900000
v -0.360000 -0.025000 1.600000
v -0.360000 -0.025000 1.900000
v -0.660000 0.025000 1.600000
v -0.660000 0.025000 1.900000
v -0.660000 -0.025000 1.600000
v -0.660000 -0.025000 1.900000
vn 1.0000 -0.0000 -0.0000
vn -0.0000 -1.0000 -0.0000
vn -1.0000 -0.0000 -0.0000
vn -0.0000 1.0000 -0.0000
vn -0.0000 -0.0000 -1.0000
vn -0.0000 -0.0000 1.0000
vt 0.375000 0.000000
vt 0.625000 0.000000
vt 0.625000 0.250000
vt 0.375000 0.250000
vt 0.625000 0.500000
vt 0.375000 0.500000
vt 0.625000 0.750000
vt 0.375000 0.750000
vt 0.625000 1.000000
vt 0.375000 1.000000
vt 0.125000 0.500000
vt 0.125000 0.750000
vt 0.875000 0.500000
vt 0.875000 0.750000
s 0
usemtl SimCheckW
f 65/121/55 66/122/55 68/123/55 67/124/55
f 67/124/56 68/123/56 72/125/56 71/126/56
f 71/126/57 72/125/57 70/127/57 69/128/57
f 69/128/58 70/127/58 66/129/58 65/130/58
f 67/131/59 71/126/59 69/128/59 65/132/59
f 72/125/60 68/133/60 66/134/60 70/127/60
o Chk_1_2
v -0.660000 0.025000 1.600000
v -0.660000 0.025000 1.900000
v -0.660000 -0.025000 1.600000
v -0.660000 -0.025000 1.900000
v -0.960000 0.025000 1.600000
v -0.960000 0.025000 1.900000
v -0.960000 -0.025000 1.600000
v -0.960000 -0.025000 1.900000
vn 1.0000 -0.0000 -0.0000
vn -0.0000 -1.0000 -0.0000
vn -1.0000 -0.0000 -0.0000
vn -0.0000 1.0000 -0.0000
vn -0.0000 -0.0000 -1.0000
vn -0.0000 -0.0000 1.0000
vt 0.375000 0.000000
vt 0.625000 0.000000
vt 0.625000 0.250000
vt 0.375000 0.250000
vt 0.625000 0.500000
vt 0.375000 0.500000
vt 0.625000 0.750000
vt 0.375000 0.750000
vt 0.625000 1.000000
vt 0.375000 1.000000
vt 0.125000 0.500000
vt 0.125000 0.750000
vt 0.875000 0.500000
vt 0.875000 0.750000
s 0
usemtl SimCheckB
f 73/135/61 74/136/61 76/137/61 75/138/61
f 75/138/62 76/137/62 80/139/62 79/140/62
f 79/140/63 80/139/63 78/141/63 77/142/63
f 77/142/64 78/141/64 74/143/64 73/144/64
f 75/145/65 79/140/65 77/142/65 73/146/65
f 80/139/66 76/147/66 74/148/66 78/141/66
o Chk_1_3
v -0.960000 0.025000 1.600000
v -0.960000 0.025000 1.900000
v -0.960000 -0.025000 1.600000
v -0.960000 -0.025000 1.900000
v -1.260000 0.025000 1.600000
v -1.260000 0.025000 1.900000
v -1.260000 -0.025000 1.600000
v -1.260000 -0.025000 1.900000
vn 1.0000 -0.0000 -0.0000
vn -0.0000 -1.0000 -0.0000
vn -1.0000 -0.0000 -0.0000
vn -0.0000 1.0000 -0.0000
vn -0.0000 -0.0000 -1.0000
vn -0.0000 -0.0000 1.0000
vt 0.375000 0.000000
vt 0.625000 0.000000
vt 0.625000 0.250000
vt 0.375000 0.250000
vt 0.625000 0.500000
vt 0.375000 0.500000
vt 0.625000 0.750000
vt 0.375000 0.750000
vt 0.625000 1.000000
vt 0.375000 1.000000
vt 0.125000 0.500000
vt 0.125000 0.750000
vt 0.875000 0.500000
vt 0.875000 0.750000
s 0
usemtl SimCheckW
f 81/149/67 82/150/67 84/151/67 83/152/67
f 83/152/68 84/151/68 88/153/68 87/154/68
f 87/154/69 88/153/69 86/155/69 85/156/69
f 85/156/70 86/155/70 82/157/70 81/158/70
f 83/159/71 87/154/71 85/156/71 81/160/71
f 88/153/72 84/161/72 82/162/72 86/155/72
