# Blender 5.1.2
# www.blender.org
mtllib carthabot_obstacle.mtl
o Obstacle
v 1.030000 0.430000 0.000000
v 1.030000 0.500000 0.070000
v 1.100000 0.430000 0.070000
v 1.030000 0.479497 0.020503
v 1.070415 0.470415 0.029585
v 1.079497 0.479497 0.070000
v 1.079497 0.430000 0.020503
v 1.030000 0.500000 0.938000
v 1.030000 0.430000 1.008000
v 1.100000 0.430000 0.938000
v 1.030000 0.479497 0.987498
v 1.070415 0.470415 0.978415
v 1.079497 0.430000 0.987498
v 1.079497 0.479497 0.938000
v 1.030000 -0.430000 0.000000
v 1.100000 -0.430000 0.070000
v 1.030000 -0.500000 0.070000
v 1.079497 -0.430000 0.020503
v 1.070415 -0.470415 0.029585
v 1.079497 -0.479497 0.070000
v 1.030000 -0.479497 0.020503
v 1.030000 -0.430000 1.008000
v 1.030000 -0.500000 0.938000
v 1.100000 -0.430000 0.938000
v 1.030000 -0.479497 0.987498
v 1.070415 -0.470415 0.978415
v 1.079497 -0.479497 0.938000
v 1.079497 -0.430000 0.987498
v -1.030000 0.430000 0.000000
v -1.100000 0.430000 0.070000
v -1.030000 0.500000 0.070000
v -1.079497 0.430000 0.020503
v -1.070415 0.470415 0.029585
v -1.079497 0.479497 0.070000
v -1.030000 0.479497 0.020503
v -1.030000 0.430000 1.008000
v -1.030000 0.500000 0.938000
v -1.100000 0.430000 0.938000
v -1.030000 0.479497 0.987498
v -1.070415 0.470415 0.978415
v -1.079497 0.479497 0.938000
v -1.079497 0.430000 0.987498
v -1.030000 -0.430000 0.000000
v -1.030000 -0.500000 0.070000
v -1.100000 -0.430000 0.070000
v -1.030000 -0.479497 0.020503
v -1.070415 -0.470415 0.029585
v -1.079497 -0.479497 0.070000
v -1.079497 -0.430000 0.020503
v -1.030000 -0.430000 1.008000
v -1.100000 -0.430000 0.938000
v -1.030000 -0.500000 0.938000
v -1.079497 -0.430000 0.987498
v -1.070415 -0.470415 0.978415
v -1.079497 -0.479497 0.938000
v -1.030000 -0.479497 0.987498
vn 0.1794 0.1794 -0.9673
vn 0.1794 0.9673 -0.1794
vn 0.9673 0.1794 -0.1794
vn 0.1726 0.6965 -0.6965
vn 0.5773 0.5774 -0.5774
vn 0.6965 0.6965 -0.1726
vn 0.6965 0.1726 -0.6965
vn 0.1794 0.9673 0.1794
vn 0.1794 0.1794 0.9673
vn 0.9673 0.1794 0.1794
vn 0.1726 0.6965 0.6965
vn 0.5773 0.5774 0.5774
vn 0.6965 0.1726 0.6965
vn 0.6965 0.6965 0.1726
vn 0.1794 -0.1794 -0.9673
vn 0.9673 -0.1794 -0.1794
vn 0.1794 -0.9673 -0.1794
vn 0.6965 -0.1726 -0.6965
vn 0.5773 -0.5774 -0.5774
vn 0.6965 -0.6965 -0.1726
vn 0.1726 -0.6965 -0.6965
vn 0.1794 -0.1794 0.9673
vn 0.1794 -0.9673 0.1794
vn 0.9673 -0.1794 0.1794
vn 0.1726 -0.6965 0.6965
vn 0.5773 -0.5774 0.5774
vn 0.6965 -0.6965 0.1726
vn 0.6965 -0.1726 0.6965
vn -0.1794 0.1794 -0.9673
vn -0.9673 0.1794 -0.1794
vn -0.1794 0.9673 -0.1794
vn -0.6965 0.1726 -0.6965
vn -0.5774 0.5774 -0.5774
vn -0.6965 0.6965 -0.1726
vn -0.1726 0.6965 -0.6965
vn -0.1794 0.1794 0.9673
vn -0.1794 0.9673 0.1794
vn -0.9673 0.1794 0.1794
vn -0.1726 0.6965 0.6965
vn -0.5773 0.5774 0.5774
vn -0.6965 0.6965 0.1726
vn -0.6965 0.1726 0.6965
vn -0.1794 -0.1794 -0.9673
vn -0.1794 -0.9673 -0.1794
vn -0.9673 -0.1794 -0.1794
vn -0.1726 -0.6965 -0.6965
vn -0.5773 -0.5774 -0.5774
vn -0.6965 -0.6965 -0.1726
vn -0.6965 -0.1726 -0.6965
vn -0.1794 -0.1794 0.9673
vn -0.9673 -0.1794 0.1794
vn -0.1794 -0.9673 0.1794
vn -0.6965 -0.1726 0.6965
vn -0.5773 -0.5774 0.5774
vn -0.6965 -0.6965 0.1726
vn -0.1726 -0.6965 0.6965
vt 0.132955 0.732500
vt 0.132955 0.750000
vt 0.128362 0.750000
vt 0.125000 0.732500
vt 0.392361 0.992045
vt 0.392361 1.000000
vt 0.382338 1.000000
vt 0.375000 0.992045
vt 0.392361 0.017500
vt 0.375000 0.017500
vt 0.375000 0.007396
vt 0.392361 0.000000
vt 0.607639 0.992045
vt 0.625000 0.992045
vt 0.625000 0.996638
vt 0.607639 1.000000
vt 0.867045 0.732500
vt 0.875000 0.732500
vt 0.875000 0.742604
vt 0.867046 0.750000
vt 0.607639 0.017500
vt 0.607639 0.000000
vt 0.617662 0.000000
vt 0.625000 0.017500
vt 0.132955 0.517500
vt 0.125000 0.517500
vt 0.125000 0.507396
vt 0.132955 0.500000
vt 0.392361 0.232500
vt 0.392361 0.250000
vt 0.378669 0.251681
vt 0.375000 0.232500
vt 0.392361 0.257955
vt 0.375000 0.257955
vt 0.867045 0.517500
vt 0.867046 0.500000
vt 0.871638 0.500000
vt 0.875000 0.517500
vt 0.607639 0.257955
vt 0.607639 0.250000
vt 0.621331 0.246302
vt 0.625000 0.257955
vt 0.607639 0.232500
vt 0.625000 0.232500
vt 0.367045 0.732500
vt 0.375000 0.732500
vt 0.377446 0.748655
vt 0.371023 0.753977
vt 0.392361 0.732500
vt 0.392361 0.750000
vt 0.392361 0.757955
vt 0.632955 0.732500
vt 0.628977 0.753977
vt 0.623675 0.747535
vt 0.625000 0.732500
vt 0.607639 0.757955
vt 0.607639 0.750000
vt 0.607639 0.732500
vt 0.367045 0.517500
vt 0.371023 0.496023
vt 0.376325 0.502465
vt 0.375000 0.517500
vt 0.392361 0.492045
vt 0.392361 0.500000
vt 0.392361 0.517500
vt 0.632954 0.517500
vt 0.625000 0.517500
vt 0.622554 0.501345
vt 0.628977 0.496023
vt 0.607639 0.517500
vt 0.607639 0.500000
vt 0.607639 0.492045
s 1
usemtl SimObstacle
f 1/1/1 4/2/4 5/3/5 7/4/7
f 2/5/2 6/6/6 5/7/5 4/8/4
f 3/9/3 7/10/7 5/11/5 6/12/6
f 8/13/8 11/14/11 12/15/12 14/16/14
f 9/17/9 13/18/13 12/19/12 11/20/11
f 10/21/10 14/22/14 12/23/12 13/24/13
f 15/25/15 18/26/18 19/27/19 21/28/21
f 16/29/16 20/30/20 19/31/19 18/32/18
f 17/33/17 21/34/21 19/31/19 20/30/20
f 22/35/22 25/36/25 26/37/26 28/38/28
f 23/39/23 27/40/27 26/41/26 25/42/25
f 24/43/24 28/44/28 26/41/26 27/40/27
f 29/45/29 32/46/32 33/47/33 35/48/35
f 30/49/30 34/50/34 33/47/33 32/46/32
f 31/51/31 35/48/35 33/47/33 34/50/34
f 36/52/36 39/53/39 40/54/40 42/55/42
f 37/56/37 41/57/41 40/54/40 39/53/39
f 38/58/38 42/55/42 40/54/40 41/57/41
f 43/59/43 46/60/46 47/61/47 49/62/49
f 44/63/44 48/64/48 47/61/47 46/60/46
f 45/65/45 49/62/49 47/61/47 48/64/48
f 50/66/50 53/67/53 54/68/54 56/69/56
f 51/70/51 55/71/55 54/68/54 53/67/53
f 52/72/52 56/69/56 54/68/54 55/71/55
f 15/25/15 1/1/1 7/4/7 18/26/18
f 18/32/18 7/10/7 3/9/3 16/29/16
f 2/5/2 8/13/8 14/16/14 6/6/6
f 6/12/6 14/22/14 10/21/10 3/9/3
f 9/17/9 22/35/22 28/38/28 13/18/13
f 13/24/13 28/44/28 24/43/24 10/21/10
f 23/39/23 17/33/17 20/30/20 27/40/27
f 27/40/27 20/30/20 16/29/16 24/43/24
f 43/59/43 15/25/15 21/28/21 46/60/46
f 46/60/46 21/34/21 17/33/17 44/63/44
f 22/35/22 50/66/50 56/69/56 25/36/25
f 25/42/25 56/69/56 52/72/52 23/39/23
f 51/70/51 45/65/45 48/64/48 55/71/55
f 55/71/55 48/64/48 44/63/44 52/72/52
f 29/45/29 43/59/43 49/62/49 32/46/32
f 32/46/32 49/62/49 45/65/45 30/49/30
f 50/66/50 36/52/36 42/55/42 53/67/53
f 53/67/53 42/55/42 38/58/38 51/70/51
f 37/56/37 31/51/31 34/50/34 41/57/41
f 41/57/41 34/50/34 30/49/30 38/58/38
f 1/1/1 29/45/29 35/48/35 4/2/4
f 4/8/4 35/48/35 31/51/31 2/5/2
f 36/52/36 9/17/9 11/20/11 39/53/39
f 39/53/39 11/14/11 8/13/8 37/56/37
f 15/25/15 43/59/43 29/45/29 1/1/1
f 3/9/3 10/21/10 24/43/24 16/29/16
f 31/51/31 37/56/37 8/13/8 2/5/2
f 50/66/50 22/35/22 9/17/9 36/52/36
f 17/33/17 23/39/23 52/72/52 44/63/44
f 45/65/45 51/70/51 38/58/38 30/49/30
o ObsBand
v 1.090000 0.490000 0.998000
v 1.090000 0.540000 1.048000
v 1.140000 0.490000 1.048000
v 1.090000 0.525355 1.012645
v 1.118868 0.518867 1.019132
v 1.125355 0.525355 1.048000
v 1.125355 0.490000 1.012645
v 1.090000 0.540000 1.108000
v 1.090000 0.490000 1.158000
v 1.140000 0.490000 1.108000
v 1.090000 0.525355 1.143355
v 1.118868 0.518867 1.136868
v 1.125355 0.490000 1.143355
v 1.125355 0.525355 1.108000
v 1.090000 -0.490000 0.998000
v 1.140000 -0.490000 1.048000
v 1.090000 -0.540000 1.048000
v 1.125355 -0.490000 1.012645
v 1.118868 -0.518867 1.019132
v 1.125355 -0.525355 1.048000
v 1.090000 -0.525355 1.012645
v 1.090000 -0.490000 1.158000
v 1.090000 -0.540000 1.108000
v 1.140000 -0.490000 1.108000
v 1.090000 -0.525355 1.143355
v 1.118868 -0.518867 1.136868
v 1.125355 -0.525355 1.108000
v 1.125355 -0.490000 1.143355
v -1.090000 0.490000 0.998000
v -1.140000 0.490000 1.048000
v -1.090000 0.540000 1.048000
v -1.125355 0.490000 1.012645
v -1.118868 0.518867 1.019132
v -1.125355 0.525355 1.048000
v -1.090000 0.525355 1.012645
v -1.090000 0.490000 1.158000
v -1.090000 0.540000 1.108000
v -1.140000 0.490000 1.108000
v -1.090000 0.525355 1.143355
v -1.118868 0.518867 1.136868
v -1.125355 0.525355 1.108000
v -1.125355 0.490000 1.143355
v -1.090000 -0.490000 0.998000
v -1.090000 -0.540000 1.048000
v -1.140000 -0.490000 1.048000
v -1.090000 -0.525355 1.012645
v -1.118868 -0.518867 1.019132
v -1.125355 -0.525355 1.048000
v -1.125355 -0.490000 1.012645
v -1.090000 -0.490000 1.158000
v -1.140000 -0.490000 1.108000
v -1.090000 -0.540000 1.108000
v -1.125355 -0.490000 1.143355
v -1.118868 -0.518867 1.136868
v -1.125355 -0.525355 1.108000
v -1.090000 -0.525355 1.143355
vn 0.1794 0.1794 -0.9673
vn 0.1794 0.9673 -0.1794
vn 0.9673 0.1794 -0.1794
vn 0.1726 0.6965 -0.6965
vn 0.5774 0.5773 -0.5774
vn 0.6965 0.6965 -0.1726
vn 0.6965 0.1726 -0.6965
vn 0.1794 0.9673 0.1794
vn 0.1794 0.1794 0.9673
vn 0.9673 0.1794 0.1794
vn 0.1726 0.6965 0.6965
vn 0.5774 0.5773 0.5774
vn 0.6965 0.1726 0.6965
vn 0.6965 0.6965 0.1726
vn 0.1794 -0.1794 -0.9673
vn 0.9673 -0.1794 -0.1794
vn 0.1794 -0.9673 -0.1794
vn 0.6965 -0.1726 -0.6965
vn 0.5774 -0.5773 -0.5774
vn 0.6965 -0.6965 -0.1726
vn 0.1726 -0.6965 -0.6965
vn 0.1794 -0.1794 0.9673
vn 0.1794 -0.9673 0.1794
vn 0.9673 -0.1794 0.1794
vn 0.1726 -0.6965 0.6965
vn 0.5774 -0.5773 0.5774
vn 0.6965 -0.6965 0.1726
vn 0.6965 -0.1726 0.6965
vn -0.1794 0.1794 -0.9673
vn -0.9673 0.1794 -0.1794
vn -0.1794 0.9673 -0.1794
vn -0.6965 0.1726 -0.6965
vn -0.5774 0.5773 -0.5774
vn -0.6965 0.6965 -0.1726
vn -0.1726 0.6965 -0.6965
vn -0.1794 0.1794 0.9673
vn -0.1794 0.9673 0.1794
vn -0.9673 0.1794 0.1794
vn -0.1726 0.6965 0.6965
vn -0.5774 0.5773 0.5774
vn -0.6965 0.6965 0.1726
vn -0.6965 0.1726 0.6965
vn -0.1794 -0.1794 -0.9673
vn -0.1794 -0.9673 -0.1794
vn -0.9673 -0.1794 -0.1794
vn -0.1726 -0.6965 -0.6965
vn -0.5774 -0.5773 -0.5774
vn -0.6965 -0.6965 -0.1726
vn -0.6965 -0.1726 -0.6965
vn -0.1794 -0.1794 0.9673
vn -0.9673 -0.1794 0.1794
vn -0.1794 -0.9673 0.1794
vn -0.6965 -0.1726 0.6965
vn -0.5774 -0.5773 0.5774
vn -0.6965 -0.6965 0.1726
vn -0.1726 -0.6965 0.6965
vt 0.130482 0.738426
vt 0.130482 0.750000
vt 0.127317 0.750000
vt 0.125000 0.738426
vt 0.453125 0.994518
vt 0.453125 1.000000
vt 0.408020 1.000000
vt 0.375000 0.994518
vt 0.453125 0.011574
vt 0.375000 0.011574
vt 0.375000 0.004892
vt 0.453125 0.000000
vt 0.546875 0.994518
vt 0.625000 0.994518
vt 0.625000 0.997683
vt 0.546875 1.000000
vt 0.869518 0.738426
vt 0.875000 0.738426
vt 0.875000 0.745108
vt 0.869518 0.750000
vt 0.546875 0.011574
vt 0.546875 0.000000
vt 0.591980 0.000000
vt 0.625000 0.011574
vt 0.130482 0.511574
vt 0.125000 0.511574
vt 0.125000 0.504892
vt 0.130482 0.500000
vt 0.453125 0.238426
vt 0.453125 0.250000
vt 0.391510 0.251159
vt 0.375000 0.238426
vt 0.453125 0.255482
vt 0.375000 0.255482
vt 0.869518 0.511574
vt 0.869518 0.500000
vt 0.872683 0.500000
vt 0.875000 0.511574
vt 0.546875 0.255482
vt 0.546875 0.250000
vt 0.608490 0.247554
vt 0.625000 0.255482
vt 0.546875 0.238426
vt 0.625000 0.238426
vt 0.369518 0.738426
vt 0.375000 0.738426
vt 0.386007 0.749142
vt 0.372259 0.752741
vt 0.453125 0.738426
vt 0.453125 0.750000
vt 0.453125 0.755482
vt 0.630482 0.738426
vt 0.627741 0.752741
vt 0.614766 0.748369
vt 0.625000 0.738426
vt 0.546875 0.755482
vt 0.546875 0.750000
vt 0.546875 0.738426
vt 0.369518 0.511574
vt 0.372259 0.497259
vt 0.385234 0.501631
vt 0.375000 0.511574
vt 0.453125 0.494518
vt 0.453125 0.500000
vt 0.453125 0.511574
vt 0.630482 0.511574
vt 0.625000 0.511574
vt 0.613994 0.500858
vt 0.627741 0.497259
vt 0.546875 0.511574
vt 0.546875 0.500000
vt 0.546875 0.494518
s 1
usemtl SimObsBand
f 57/73/57 60/74/60 61/75/61 63/76/63
f 58/77/58 62/78/62 61/79/61 60/80/60
f 59/81/59 63/82/63 61/83/61 62/84/62
f 64/85/64 67/86/67 68/87/68 70/88/70
f 65/89/65 69/90/69 68/91/68 67/92/67
f 66/93/66 70/94/70 68/95/68 69/96/69
f 71/97/71 74/98/74 75/99/75 77/100/77
f 72/101/72 76/102/76 75/103/75 74/104/74
f 73/105/73 77/106/77 75/103/75 76/102/76
f 78/107/78 81/108/81 82/109/82 84/110/84
f 79/111/79 83/112/83 82/113/82 81/114/81
f 80/115/80 84/116/84 82/113/82 83/112/83
f 85/117/85 88/118/88 89/119/89 91/120/91
f 86/121/86 90/122/90 89/119/89 88/118/88
f 87/123/87 91/120/91 89/119/89 90/122/90
f 92/124/92 95/125/95 96/126/96 98/127/98
f 93/128/93 97/129/97 96/126/96 95/125/95
f 94/130/94 98/127/98 96/126/96 97/129/97
f 99/131/99 102/132/102 103/133/103 105/134/105
f 100/135/100 104/136/104 103/133/103 102/132/102
f 101/137/101 105/134/105 103/133/103 104/136/104
f 106/138/106 109/139/109 110/140/110 112/141/112
f 107/142/107 111/143/111 110/140/110 109/139/109
f 108/144/108 112/141/112 110/140/110 111/143/111
f 71/97/71 57/73/57 63/76/63 74/98/74
f 74/104/74 63/82/63 59/81/59 72/101/72
f 58/77/58 64/85/64 70/88/70 62/78/62
f 62/84/62 70/94/70 66/93/66 59/81/59
f 65/89/65 78/107/78 84/110/84 69/90/69
f 69/96/69 84/116/84 80/115/80 66/93/66
f 79/111/79 73/105/73 76/102/76 83/112/83
f 83/112/83 76/102/76 72/101/72 80/115/80
f 99/131/99 71/97/71 77/100/77 102/132/102
f 102/132/102 77/106/77 73/105/73 100/135/100
f 78/107/78 106/138/106 112/141/112 81/108/81
f 81/114/81 112/141/112 108/144/108 79/111/79
f 107/142/107 101/137/101 104/136/104 111/143/111
f 111/143/111 104/136/104 100/135/100 108/144/108
f 85/117/85 99/131/99 105/134/105 88/118/88
f 88/118/88 105/134/105 101/137/101 86/121/86
f 106/138/106 92/124/92 98/127/98 109/139/109
f 109/139/109 98/127/98 94/130/94 107/142/107
f 93/128/93 87/123/87 90/122/90 97/129/97
f 97/129/97 90/122/90 86/121/86 94/130/94
f 57/73/57 85/117/85 91/120/91 60/74/60
f 60/80/60 91/120/91 87/123/87 58/77/58
f 92/124/92 65/89/65 67/92/67 95/125/95
f 95/125/95 67/86/67 64/85/64 93/128/93
f 71/97/71 99/131/99 85/117/85 57/73/57
f 59/81/59 66/93/66 80/115/80 72/101/72
f 87/123/87 93/128/93 64/85/64 58/77/58
f 106/138/106 78/107/78 65/89/65 92/124/92
f 73/105/73 79/111/79 108/144/108 100/135/100
f 101/137/101 107/142/107 94/130/94 86/121/86
